<?xml version="1.0" encoding="UTF-8"?>
<svg id="Layer_1" data-name="Layer 1" xmlns="http://www.w3.org/2000/svg" viewBox="0 0 98.66 152.96">
  <defs>
    <style>
      .cls-1 {
        fill: #ff7240;
        fill-rule: evenodd;
      }
    </style>
  </defs>
  <g id="robot-12_black" data-name="robot-12 black">
    <path id="robot-12_black1" data-name="robot-12 black1" class="cls-1" d="M43.98,0h0C39.65,0,36.08,3.56,36.08,7.89h0c0,4.33,3.56,7.89,7.89,7.89h0c.66,0,1.31-.09,1.95-.26l2.08,2.41h-5.46c-1.4,0-2.56,1.16-2.56,2.56v8.76c0,1.4,1.16,2.56,2.56,2.56h3.82v2.2h-2.22c-3.31,0-5.99,2.68-5.99,5.99v1.97c-3.7,2.34-7.96,5.22-12.18,8.24-4.73,3.38-9.37,6.88-12.97,9.84-1.8,1.48-3.34,2.82-4.54,3.99-1.21,1.18-2.11,1.58-2.87,3.86-.76,2.28-.27,3.15,0,4.81.27,1.66.72,3.63,1.29,5.87.64,2.52,1.47,5.39,2.38,8.36-1.39.25-1.95.35-3.83.68-1.72.3-3.25,1.28-4.25,2.71-1,1.43-1.39,3.21-1.09,4.93.43,2.45.93,5.23,1.36,7.68.31,1.72,1.28,3.25,2.72,4.25.25.17.51.33.77.46l3.1,17.46c-2.35,1.71-3.66,4.66-3.12,7.71.75,4.25,4.82,7.1,9.08,6.34,4.25-.76,7.09-4.82,6.34-9.08-.54-3.05-2.78-5.37-5.57-6.16l-2.86-16.14c1.81-.32,4.15-.74,4.25-.76.29.74.58,1.49.86,2.17.87,2.14,1.69,3.99,2.46,5.49.77,1.5.91,2.49,2.84,3.87,1.93,1.38,2.91,1.2,4.58,1.45,1.68.25,3.72.45,6.06.6,4.68.31,10.52.47,16.36.47s11.69-.15,16.37-.47c2.34-.16,4.38-.35,6.06-.6,1.68-.25,2.65-.07,4.58-1.45,1.93-1.38,2.08-2.37,2.84-3.87.77-1.5,1.59-3.35,2.46-5.49.28-.68.57-1.44.86-2.17.1.02,2.44.43,4.25.76l-2.86,16.14c-2.79.79-5.03,3.12-5.57,6.17-.75,4.25,2.09,8.32,6.34,9.08,4.25.75,8.32-2.09,9.08-6.34.54-3.05-.77-6-3.12-7.71l3.1-17.46c.27-.14.52-.29.77-.46,1.43-1,2.41-2.53,2.72-4.25.43-2.45.93-5.23,1.36-7.68.31-1.72-.09-3.5-1.09-4.93-1-1.43-2.53-2.41-4.25-2.71-1.88-.33-2.44-.43-3.83-.68.9-2.98,1.73-5.85,2.38-8.36.57-2.24,1.02-4.21,1.29-5.87.27-1.66.76-2.52,0-4.81-.76-2.28-1.66-2.69-2.87-3.86-1.21-1.18-2.75-2.52-4.54-3.99-3.6-2.96-8.23-6.45-12.97-9.84-4.53-3.24-9.12-6.33-12.99-8.74v-1.47c0-3.31-2.68-5.99-5.99-5.99h-2.22v-4.76c0-1.4-1.16-2.56-2.56-2.56h-3.82v-3.64h8.5c1.4,0,2.56-1.16,2.56-2.56,0-.61-.22-1.21-.62-1.67l-5.31-6.14c1.06-1.37,1.63-3.05,1.64-4.78h0c0-4.33-3.56-7.89-7.89-7.89h0ZM32.51,54.77c1.79,3.11,5.11,5.05,8.73,5.05h16.18c3.62,0,6.94-1.94,8.73-5.05.74.52,1.46,1,2.2,1.52,4.62,3.3,9.17,6.74,12.56,9.53,1.7,1.4,3.12,2.64,4.07,3.57.35.34.55.65.75.94,0,.34.03.7-.04,1.17-.21,1.3-.62,3.12-1.16,5.23-1.08,4.22-2.7,9.62-4.47,14.96-1.77,5.34-3.68,10.65-5.33,14.69-.83,2.02-1.59,3.73-2.19,4.91-.23.45-.47.74-.68,1.01-.33.12-.71.26-1.22.34-1.33.2-3.23.39-5.44.54-4.42.3-10.15.45-15.87.45s-11.45-.15-15.87-.45c-2.21-.15-4.1-.33-5.44-.54-.51-.08-.88-.22-1.22-.34-.21-.27-.45-.56-.68-1.01-.6-1.18-1.37-2.89-2.19-4.91-1.65-4.04-3.57-9.34-5.33-14.69-1.77-5.34-3.39-10.74-4.47-14.96-.54-2.11-.94-3.93-1.16-5.23-.08-.48-.05-.83-.04-1.17.2-.28.4-.59.75-.94.95-.93,2.37-2.17,4.07-3.57,3.4-2.79,7.94-6.23,12.56-9.53.74-.53,1.46-1.01,2.2-1.52h0ZM49.33,61.96c-1.39,0-2.54,1.15-2.54,2.54,0,1.39,1.15,2.54,2.54,2.54,1.39,0,2.54-1.15,2.54-2.54,0-1.39-1.15-2.54-2.54-2.54ZM49.33,72.23c-1.39,0-2.54,1.15-2.54,2.54,0,1.39,1.15,2.54,2.54,2.54s2.54-1.15,2.54-2.54c0-1.39-1.15-2.54-2.54-2.54ZM29.85,79.17c-4.45,0-8.12,3.67-8.12,8.12s3.67,8.12,8.12,8.12,8.12-3.67,8.12-8.12-3.67-8.12-8.12-8.12ZM68.81,79.17c-4.45,0-8.12,3.67-8.12,8.12s3.67,8.12,8.12,8.12,8.12-3.67,8.12-8.12-3.67-8.12-8.12-8.12ZM49.33,82.41c-1.39,0-2.54,1.15-2.54,2.54h0c0,1.4,1.15,2.54,2.54,2.54,1.39,0,2.54-1.15,2.54-2.54h0c0-1.4-1.15-2.54-2.54-2.54ZM41.94,92.91c-.99,0-1.91.49-2.47,1.31-.55.82-.67,1.86-.3,2.77,1.62,4.02,5.56,6.86,10.16,6.86s8.54-2.84,10.16-6.86c.36-.92.25-1.96-.3-2.77-.55-.82-1.48-1.31-2.46-1.31-4.07,0-10.71,0-14.78,0h0ZM35.51,124.42c-1.87,0-3.41,1.54-3.41,3.41v21.71c0,1.87,1.54,3.41,3.41,3.41h27.64c1.87,0,3.41-1.54,3.41-3.41v-21.71c0-1.87-1.54-3.41-3.41-3.41h-27.64ZM38.93,131.25h20.81v2.57h-20.81v-2.57ZM38.93,137.24h20.81v2.91h-20.81v-2.91ZM38.93,143.56h20.81v2.57h-20.81v-2.57Z"/>
  </g>
</svg>