<?xml version="1.0" encoding="UTF-8"?>
<svg id="Layer_1" xmlns="http://www.w3.org/2000/svg" version="1.1" viewBox="0 0 124 191">
  <!-- Generator: Adobe Illustrator 29.1.0, SVG Export Plug-In . SVG Version: 2.1.0 Build 142)  -->
  <defs>
    <style>
      .st0 {
        fill-rule: evenodd;
      }
    </style>
  </defs>
  <g id="robot-12_black">
    <path id="robot-12_black1" class="st0" d="M59,12.2h0c-4.3,0-7.9,3.6-7.9,7.9h0c0,4.3,3.6,7.9,7.9,7.9h0c.7,0,1.3,0,1.9-.3l2.1,2.4h-5.5c-1.4,0-2.6,1.2-2.6,2.6v8.8c0,1.4,1.2,2.6,2.6,2.6h3.8v2.2h-2.2c-3.3,0-6,2.7-6,6v2c-3.7,2.3-8,5.2-12.2,8.2-4.7,3.4-9.4,6.9-13,9.8-1.8,1.5-3.3,2.8-4.5,4-1.2,1.2-2.1,1.6-2.9,3.9-.8,2.3-.3,3.2,0,4.8.3,1.7.7,3.6,1.3,5.9.6,2.5,1.5,5.4,2.4,8.4-1.4.2-1.9.3-3.8.7-1.7.3-3.3,1.3-4.3,2.7-1,1.4-1.4,3.2-1.1,4.9.4,2.4.9,5.2,1.4,7.7.3,1.7,1.3,3.3,2.7,4.3.2.2.5.3.8.5l3.1,17.5c-2.3,1.7-3.7,4.7-3.1,7.7.8,4.3,4.8,7.1,9.1,6.3,4.3-.8,7.1-4.8,6.3-9.1-.5-3-2.8-5.4-5.6-6.2l-2.9-16.1c1.8-.3,4.2-.7,4.3-.8.3.7.6,1.5.9,2.2.9,2.1,1.7,4,2.5,5.5.8,1.5.9,2.5,2.8,3.9,1.9,1.4,2.9,1.2,4.6,1.5,1.7.3,3.7.4,6.1.6,4.7.3,10.5.5,16.4.5s11.7-.2,16.4-.5c2.3-.2,4.4-.3,6.1-.6,1.7-.3,2.7,0,4.6-1.5,1.9-1.4,2.1-2.4,2.8-3.9.8-1.5,1.6-3.3,2.5-5.5.3-.7.6-1.4.9-2.2,0,0,2.4.4,4.2.8l-2.9,16.1c-2.8.8-5,3.1-5.6,6.2-.8,4.3,2.1,8.3,6.3,9.1,4.3.8,8.3-2.1,9.1-6.3.5-3-.8-6-3.1-7.7l3.1-17.5c.3-.1.5-.3.8-.5,1.4-1,2.4-2.5,2.7-4.3.4-2.4.9-5.2,1.4-7.7.3-1.7,0-3.5-1.1-4.9-1-1.4-2.5-2.4-4.3-2.7-1.9-.3-2.4-.4-3.8-.7.9-3,1.7-5.8,2.4-8.4.6-2.2,1-4.2,1.3-5.9.3-1.7.8-2.5,0-4.8-.8-2.3-1.7-2.7-2.9-3.9-1.2-1.2-2.7-2.5-4.5-4-3.6-3-8.2-6.5-13-9.8-4.5-3.2-9.1-6.3-13-8.7v-1.5c0-3.3-2.7-6-6-6h-2.2v-4.8c0-1.4-1.2-2.6-2.6-2.6h-3.8v-3.6h8.5c1.4,0,2.6-1.2,2.6-2.6s-.2-1.2-.6-1.7l-5.3-6.1c1.1-1.4,1.6-3.1,1.6-4.8h0c0-4.3-3.6-7.9-7.9-7.9h0ZM47.5,67c1.8,3.1,5.1,5,8.7,5h16.2c3.6,0,6.9-1.9,8.7-5,.7.5,1.5,1,2.2,1.5,4.6,3.3,9.2,6.7,12.6,9.5,1.7,1.4,3.1,2.6,4.1,3.6.4.3.6.7.7.9,0,.3,0,.7,0,1.2-.2,1.3-.6,3.1-1.2,5.2-1.1,4.2-2.7,9.6-4.5,15-1.8,5.3-3.7,10.6-5.3,14.7-.8,2-1.6,3.7-2.2,4.9-.2.4-.5.7-.7,1-.3.1-.7.3-1.2.3-1.3.2-3.2.4-5.4.5-4.4.3-10.1.4-15.9.4s-11.4-.2-15.9-.4c-2.2-.1-4.1-.3-5.4-.5-.5,0-.9-.2-1.2-.3-.2-.3-.5-.6-.7-1-.6-1.2-1.4-2.9-2.2-4.9-1.7-4-3.6-9.3-5.3-14.7-1.8-5.3-3.4-10.7-4.5-15-.5-2.1-.9-3.9-1.2-5.2,0-.5,0-.8,0-1.2.2-.3.4-.6.8-.9,1-.9,2.4-2.2,4.1-3.6,3.4-2.8,7.9-6.2,12.6-9.5.7-.5,1.5-1,2.2-1.5h0ZM64.3,74.2c-1.4,0-2.5,1.1-2.5,2.5,0,1.4,1.1,2.5,2.5,2.5,1.4,0,2.5-1.1,2.5-2.5,0-1.4-1.1-2.5-2.5-2.5ZM64.3,84.4c-1.4,0-2.5,1.1-2.5,2.5,0,1.4,1.1,2.5,2.5,2.5s2.5-1.1,2.5-2.5c0-1.4-1.1-2.5-2.5-2.5ZM44.8,91.4c-4.5,0-8.1,3.7-8.1,8.1s3.7,8.1,8.1,8.1,8.1-3.7,8.1-8.1-3.7-8.1-8.1-8.1ZM83.8,91.4c-4.5,0-8.1,3.7-8.1,8.1s3.7,8.1,8.1,8.1,8.1-3.7,8.1-8.1-3.7-8.1-8.1-8.1ZM64.3,94.6c-1.4,0-2.5,1.1-2.5,2.5h0c0,1.4,1.1,2.5,2.5,2.5,1.4,0,2.5-1.1,2.5-2.5h0c0-1.4-1.1-2.5-2.5-2.5ZM56.9,105.1c-1,0-1.9.5-2.5,1.3-.6.8-.7,1.9-.3,2.8,1.6,4,5.6,6.9,10.2,6.9s8.5-2.8,10.2-6.9c.4-.9.3-2-.3-2.8-.6-.8-1.5-1.3-2.5-1.3-4.1,0-10.7,0-14.8,0h0ZM50.5,136.6c-1.9,0-3.4,1.5-3.4,3.4v21.7c0,1.9,1.5,3.4,3.4,3.4h27.6c1.9,0,3.4-1.5,3.4-3.4v-21.7c0-1.9-1.5-3.4-3.4-3.4h-27.6ZM53.9,143.4h20.8v2.6h-20.8v-2.6ZM53.9,149.4h20.8v2.9h-20.8v-2.9ZM53.9,155.7h20.8v2.6h-20.8v-2.6Z"/>
  </g>
</svg>